HIERARCHY
ROOT root
{
	OFFSET	0	13.1	24.9
	CHANNELS 6  Xposition Yposition Zposition Xrotation Yrotation Zrotation
	JOINT spine_1
	{
		OFFSET	0	9.99999	0
		CHANNELS 3  Xrotation Yrotation Zrotation
		JOINT spine_2
		{
			OFFSET	0	112	-10
			CHANNELS 3  Xrotation Yrotation Zrotation
			JOINT spine_3
			{
				OFFSET	0	206.5	19.3
				CHANNELS 3  Xrotation Yrotation Zrotation
				JOINT spine_4
				{
					OFFSET	0	110.4	14.6
					CHANNELS 3  Xrotation Yrotation Zrotation
					JOINT neck_1
					{
						OFFSET	0	71.8	-50.3
						CHANNELS 3  Xrotation Yrotation Zrotation
						JOINT neck_2
						{
							OFFSET	0	86.2	-25.8
							CHANNELS 3  Xrotation Yrotation Zrotation
							JOINT head_ee
							{
								OFFSET	0	179.8	-8.7
								CHANNELS 3  Xrotation Yrotation Zrotation
								End Site
								{
									OFFSET	1	0	0
								}
							}
						}
					}
					JOINT left_clavicle
					{
						OFFSET	-43.2	22.4	-70.8
						CHANNELS 3  Xrotation Yrotation Zrotation
						JOINT left_shoulder
						{
							OFFSET	-93.9	-5.79999	48.7
							CHANNELS 3  Xrotation Yrotation Zrotation
							JOINT left_elbow
							{
								OFFSET	-291.4	-30.8	15.2
								CHANNELS 3  Xrotation Yrotation Zrotation
								JOINT left_lowarm_twist
								{
									OFFSET	-110.7	-3.89999	13.6
									CHANNELS 3  Xrotation Yrotation Zrotation
									JOINT left_hand
									{
										OFFSET	-110.7	-3.89999	13.6
										CHANNELS 3  Xrotation Yrotation Zrotation
										JOINT left_ee
										{
											OFFSET	-80.8	-5.10001	12.1
											CHANNELS 3  Xrotation Yrotation Zrotation
											End Site
											{
												OFFSET	1	0	0
											}
										}
									}
								}
							}
						}
					}
					JOINT right_clavicle
					{
						OFFSET	43.2	22.4	-70.8
						CHANNELS 3  Xrotation Yrotation Zrotation
						JOINT right_shoulder
						{
							OFFSET	93.9	-5.79999	48.7
							CHANNELS 3  Xrotation Yrotation Zrotation
							JOINT right_elbow
							{
								OFFSET	291.4	-30.8	15.2
								CHANNELS 3  Xrotation Yrotation Zrotation
								JOINT right_lowarm_twist
								{
									OFFSET	110.7	-3.89999	13.6
									CHANNELS 3  Xrotation Yrotation Zrotation
									JOINT right_hand
									{
										OFFSET	110.7	-3.89999	13.6
										CHANNELS 3  Xrotation Yrotation Zrotation
										JOINT right_ee
										{
											OFFSET	80.8	-5.10001	12.1
											CHANNELS 3  Xrotation Yrotation Zrotation
											End Site
											{
												OFFSET	1	0	0
											}
										}
									}
								}
							}
						}
					}
				}
			}
		}
	}
	JOINT left_hip
	{
		OFFSET	-82.8	-127.5	0.300001
		CHANNELS 3  Xrotation Yrotation Zrotation
		JOINT left_knee
		{
			OFFSET	-28.2	-396.7	2.2
			CHANNELS 3  Xrotation Yrotation Zrotation
			JOINT left_ankle
			{
				OFFSET	-11.7	-411.3	35.4
				CHANNELS 3  Xrotation Yrotation Zrotation
				JOINT left_toes
				{
					OFFSET	0	-60	-88.6
					CHANNELS 3  Xrotation Yrotation Zrotation
					JOINT left_foot_ee
					{
						OFFSET	-22.5	-16.5	-42.2
						CHANNELS 3  Xrotation Yrotation Zrotation
						End Site
						{
							OFFSET	1	0	0
						}
					}
				}
			}
		}
	}
	JOINT right_hip
	{
		OFFSET	82.8	-127.5	0.300001
		CHANNELS 3  Xrotation Yrotation Zrotation
		JOINT right_knee
		{
			OFFSET	28.2	-396.7	2.2
			CHANNELS 3  Xrotation Yrotation Zrotation
			JOINT right_ankle
			{
				OFFSET	11.7	-411.3	35.4
				CHANNELS 3  Xrotation Yrotation Zrotation
				JOINT right_toes
				{
					OFFSET	0	-60	-88.6
					CHANNELS 3  Xrotation Yrotation Zrotation
					JOINT right_foot_ee
					{
						OFFSET	22.5	-16.5	-42.2
						CHANNELS 3  Xrotation Yrotation Zrotation
						End Site
						{
							OFFSET	1	0	0
						}
					}
				}
			}
		}
	}
}
MOTION
Frames: 6
Frame Time: 0.02
1180.61065256 721.945 -1870.92336116 -0.531005714837 18.642280949 2.62505231505 -0.417571 -0.239137 -0.995008 -0.417038 -0.175341 -1.00821 -0.413555 0.0478516 -1.02222 -0.414995 -0.114181 -1.01695 -5.52763 12.2282 3.82181 -5.44457 19.7417 6.07558 -0.0 0.0 -0.0 7.36453 18.2388 13.4732 -26.6915 -17.2886 54.3166 2.33218 -49.1141 1.06576 9.4008 0.235154 -1.1765 3.29176 -12.6495 17.0212 -0.0 0.0 -0.0 9.10495 -5.55444 -17.5424 -38.7389 57.8389 -29.3219 3.81285 62.0844 -2.29536 -7.5452 0.326138 -0.907073 -4.27136 -12.0605 22.6969 0.0 0.0 0.0 13.1732 0.492092 -5.87085 -42.1676 -0.610399 6.29903 20.4431 26.498 -2.95279 -11.5591 0.0 0.0 -0.0 0.0 -0.0 4.57104 -13.609 -1.37948 -12.1725 -0.306779 -1.83937 17.0637 25.9267 2.82213 4.43369 -0.0 -0.0 0.0 0.0 0.0 
1176.52153012 722.021 -1886.04224697 -0.570583175442 18.2518681953 2.66956112642 -0.468425 -0.167981 -0.963961 -0.467914 -0.106304 -0.972695 -0.46576 0.108421 -0.972461 -0.467077 -0.0465139 -0.97738 -5.97462 11.7814 3.53001 -5.91509 19.204 5.76571 -0.0 0.0 -0.0 7.61819 19.5604 13.7509 -28.1597 -18.5215 52.5832 2.09901 -46.1119 0.893479 8.95511 0.228388 -1.11997 3.04079 -12.696 15.245 -0.0 0.0 -0.0 8.83084 -4.70388 -17.0618 -35.0067 58.9548 -31.1548 3.53824 60.2787 -2.05473 -8.37796 0.369398 -1.0044 -4.06216 -9.80725 22.6211 0.0 0.0 0.0 15.9654 2.25042 -7.6056 -44.41 -0.770894 6.60431 18.0911 26.2064 -2.63317 -11.2644 0.0 0.0 -0.0 0.0 -0.0 3.3692 -15.1043 -0.989989 -12.0778 -0.30591 -1.82486 17.1831 24.9897 2.81043 4.32106 -0.0 -0.0 0.0 0.0 0.0 
1152.53245874 721.84 -1906.67813015 1.39293676121 16.8225383579 2.11834555783 -0.508401 0.101309 -0.834695 -0.508026 0.154216 -0.826558 -0.510113 0.331412 -0.772756 -0.510888 0.205215 -0.815394 -6.30141 11.1647 4.36401 -6.2422 17.5 6.52736 -0.0 0.0 -0.0 7.7102 20.7319 13.7731 -28.9955 -17.6227 52.1904 1.643 -39.1389 0.584096 7.55952 0.20436 -0.943321 2.65982 -13.818 12.0894 -0.0 0.0 -0.0 9.79197 -0.65955 -19.1948 -34.5413 57.5097 -31.3562 3.26182 58.2341 -1.81712 -5.5343 0.227559 -0.669582 -3.87607 -7.34509 22.7619 0.0 0.0 0.0 20.6575 -2.36099 -7.42805 -46.479 -0.929526 6.88032 18.3531 26.5808 -2.67461 -12.5151 0.0 0.0 -0.0 0.0 -0.0 -0.591315 -13.7242 -0.286571 -11.5254 -0.300362 -1.74028 17.1759 25.0451 2.81107 3.86399 -0.0 -0.0 0.0 0.0 0.0 
1123.87750526 717.914 -1913.03343628 2.21497698649 16.2632684136 1.09119473258 -0.718932 0.229876 -0.554022 -0.7188 0.264664 -0.538273 -0.721295 0.377791 -0.465897 -0.721472 0.299471 -0.519713 -7.07802 11.1883 5.9486 -6.99922 16.5305 8.20311 -0.0 0.0 -0.0 7.51202 22.6966 13.2656 -28.3326 -15.8518 52.2875 1.4436 -35.5671 0.463055 7.72959 0.207519 -0.964815 2.09821 -13.9482 8.19978 -0.0 0.0 -0.0 10.253 2.92947 -20.3058 -32.9963 57.1248 -32.0136 3.22264 57.9237 -1.78386 -2.56318 0.0973341 -0.312797 -3.83681 -6.92214 22.7272 0.0 0.0 0.0 24.5389 -8.23984 -6.04646 -46.106 -0.900189 6.83098 16.3306 26.6831 -2.39974 -13.6256 0.0 0.0 -0.0 0.0 -0.0 -3.23361 -13.416 0.520713 -8.96408 -0.263996 -1.34898 19.9745 23.5999 3.17093 4.16078 -0.0 -0.0 0.0 0.0 0.0 
1108.31156276 717.914 -1903.83664557 2.23988595877 18.3201989389 1.00740655984 -0.718932 0.229876 -0.554022 -0.7188 0.264664 -0.538273 -0.721295 0.377791 -0.465897 -0.721472 0.299471 -0.519713 -7.07802 11.1883 5.9486 -6.99922 16.5305 8.20311 -0.0 0.0 -0.0 7.51202 22.6966 13.2656 -28.3326 -15.8518 52.2875 1.4436 -35.5671 0.463055 7.72959 0.207519 -0.964815 2.09821 -13.9482 8.19978 -0.0 0.0 -0.0 10.253 2.92947 -20.3058 -32.9963 57.1248 -32.0136 3.22264 57.9237 -1.78386 -2.56318 0.0973341 -0.312797 -3.83681 -6.92214 22.7272 0.0 0.0 0.0 24.5389 -8.23984 -6.04646 -46.106 -0.900189 6.83098 16.3306 26.6831 -2.39974 -13.6256 0.0 0.0 -0.0 0.0 -0.0 -3.23361 -13.416 0.520713 -8.96408 -0.263996 -1.34898 19.9745 23.5999 3.17093 4.16078 -0.0 -0.0 0.0 0.0 0.0 
1090.13217848 715.421 -1911.88774585 2.36674298095 16.9163340813 0.717194361414 -0.923825 0.562904 -0.40811 -0.923924 0.587732 -0.371463 -0.927947 0.656477 -0.229019 -0.927497 0.612069 -0.329826 -8.47427 10.4991 5.83007 -8.42846 15.5803 8.1029 -0.0 0.0 -0.0 8.06092 23.0794 14.0249 -28.8983 -15.707 50.8454 1.18326 -30.3756 0.321224 7.16618 0.196811 -0.893642 1.94383 -15.0211 6.66992 -0.0 0.0 -0.0 10.5213 4.41872 -20.924 -31.7361 56.8182 -32.2319 3.14503 57.2925 -1.71832 -2.40696 0.0910019 -0.293858 -3.67887 -4.86535 22.7639 0.0 0.0 0.0 27.5434 -6.95288 -8.00459 -45.9937 -0.891425 6.81609 14.7861 26.322 -2.18028 -14.5899 0.0 0.0 -0.0 0.0 -0.0 -4.84225 -12.876 1.2665 -6.87975 -0.221515 -1.03197 20.7658 24.6746 3.31926 3.9832 -0.0 -0.0 0.0 0.0 0.0 
